<svg xmlns:xlink="http://www.w3.org/1999/xlink" xmlns:dc="http://purl.org/dc/elements/1.1/" xmlns:cc="http://creativecommons.org/ns#" xmlns:rdf="http://www.w3.org/1999/02/22-rdf-syntax-ns#" xmlns:svg="http://www.w3.org/2000/svg" xmlns="http://www.w3.org/2000/svg" xmlns:sodipodi="http://sodipodi.sourceforge.net/DTD/sodipodi-0.dtd" xmlns:inkscape="http://www.inkscape.org/namespaces/inkscape" id="Layer_1" data-name="Layer 1" viewBox="0 0 220.00001 220.80142" version="1.1" sodipodi:docname="razer logo official.svg" width="220.00002" height="220.80142" inkscape:version="0.92.4 (5da689c313, 2019-01-14)">
  <metadata id="metadata1430">
    <rdf:RDF>
      <cc:Work rdf:about="">
        <dc:format>image/svg+xml</dc:format>
        <dc:type rdf:resource="http://purl.org/dc/dcmitype/StillImage"/>
      </cc:Work>
    </rdf:RDF>
  </metadata>
  <sodipodi:namedview pagecolor="#ffffff" bordercolor="#666666" borderopacity="1" objecttolerance="10" gridtolerance="10" guidetolerance="10" inkscape:pageopacity="0" inkscape:pageshadow="2" inkscape:window-width="1920" inkscape:window-height="1017" id="namedview1428" showgrid="false" inkscape:zoom="1.3125695" inkscape:cx="-16.284917" inkscape:cy="181.08662" inkscape:window-x="-8" inkscape:window-y="176" inkscape:window-maximized="1" inkscape:current-layer="Layer_1"/>
  <defs id="defs1415">
    <style id="style1413">.cls-1{fill:lime;}</style>
  </defs>
  <title id="title1417">THS</title>
  <path class="cls-1" d="m 219.47359,5.579234 a 3.5418408,3.5418408 0 0 0 -1.08223,-1.18062 3.5418408,3.5418408 0 0 0 -6.05064,-3.24669 l -1.96769,2.06608 -3.68942,1.67253 a 6.5425671,6.5425671 0 0 0 -3.83699,0 2.8039573,2.8039573 0 0 1 -1.57415,0 9.24814,9.24814 0 0 0 -5.21438,0 8.6086409,8.6086409 0 0 0 -3.24669,0.59031 8.0675264,8.0675264 0 0 0 -3.7878,3.09911 l -0.34434,0.44273 a 11.461791,11.461791 0 0 0 -8.2643,6.29661 9.8384469,9.8384469 0 0 0 -0.6395,2.06607 17.807589,17.807589 0 0 0 -3.09911,-1.77092 18.643857,18.643857 0 0 0 -18.9882,2.80395 19.135779,19.135779 0 0 0 -6.34581,19.6769 34.139411,34.139411 0 0 0 3.93539,9.83845 111.96152,111.96152 0 0 0 15.98747,19.67689 94.645858,94.645858 0 0 1 12.88837,15.544746 l 0.49192,0.885461 c 3.64022,6.936105 2.95153,12.052097 -2.01688,15.151207 a 12.494827,12.494827 0 0 1 -5.26357,1.820112 22.923581,22.923581 0 0 0 -1.32819,-19.037393 21.546198,21.546198 0 0 0 -2.75476,-3.73861 c -7.28045,-7.969143 -15.00364,-6.198223 -18.05356,-4.132143 a 3.5418408,3.5418408 0 0 0 -1.37738,4.181335 l 0.24597,0.541114 a 3.5418408,3.5418408 0 0 0 3.49264,1.721729 9.8384469,9.8384469 0 0 1 8.85461,5.361953 11.166637,11.166637 0 0 1 0,11.461791 44.273011,44.273011 0 0 1 -4.91923,-4.919224 l -0.63949,-0.639498 -0.34436,-0.393538 a 30.991107,30.991107 0 0 0 -17.66,-11.117445 28.433111,28.433111 0 0 0 -3.73862,-13.380287 40.190055,40.190055 0 0 0 -12.49482,-13.62625 24.596117,24.596117 0 0 0 -2.45961,-1.47576 28.383919,28.383919 0 0 0 -20.70994,-24.98966 24.842078,24.842078 0 0 0 -27.301686,10.47795 c -0.491922,0.78707 -1.033037,1.57414 -1.52496,2.45961 a 112.7978,112.7978 0 0 0 -9.543293,25.57996 107.09149,107.09149 0 0 1 -7.132874,20.119621 l -0.541114,0.983845 c -1.96769,3.443456 -3.73861,5.361954 -5.607916,5.95226 a 3.7386098,3.7386098 0 0 1 -3.443455,-0.590306 c -1.869305,-1.278999 -1.426575,-3.886187 0,-8.952987 a 30.646762,30.646762 0 0 0 1.180614,-4.132148 10.969868,10.969868 0 0 0 -1.869305,-8.707025 9.8384469,9.8384469 0 0 0 -7.231258,-3.7878 10.822292,10.822292 0 0 0 -10.379562,6.64095 l -0.737883,1.37738 a 8.9037944,8.9037944 0 0 0 -2.902343,-4.23053 8.6086409,8.6086409 0 0 0 -2.705572,-1.18061 9.3465245,9.3465245 0 0 0 -4.919224,-1.82012 3.148303,3.148303 0 0 1 -1.57415,-0.49192 6.5425671,6.5425671 0 0 0 -3.984572,-0.88546 l -3.000726,-2.36123 -1.3281904,-2.55799 a 3.5418408,3.5418408 0 0 0 -6.6901438,1.42657 3.5418408,3.5418408 0 0 0 0.2951534,6.69015 l 2.8039573,0.68869 3.148303,2.45961 a 6.5425671,6.5425671 0 0 0 1.7709205,3.39426 2.8039573,2.8039573 0 0 1 0.787076,1.377385 9.24814,9.24814 0 0 0 2.902341,4.328917 8.6086409,8.6086409 0 0 0 2.115267,2.557996 8.0675264,8.0675264 0 0 0 4.574877,1.721729 h 0.541115 a 11.461791,11.461791 0 0 0 9.838446,4.033763 9.8384469,9.8384469 0 0 0 2.115266,-0.491922 17.807589,17.807589 0 0 0 0,3.492648 18.643857,18.643857 0 0 0 11.953714,15.05282 19.135779,19.135779 0 0 0 20.316391,-4.4273 34.139411,34.139411 0 0 0 6.394991,-8.2151 111.96152,111.96152 0 0 0 9.002179,-23.661466 94.645858,94.645858 0 0 1 6.985297,-18.93901 l 0.541114,-0.88545 c 4.18134,-6.64096 8.952987,-8.60865 14.118175,-5.85389 a 12.494827,12.494827 0 0 1 4.23053,3.64023 22.923581,22.923581 0 0 0 -15.790709,10.67471 21.546198,21.546198 0 0 0 -1.869304,4.23054 c -3.246688,10.28117 2.115266,16.085858 5.460338,17.709202 a 3.5418408,3.5418408 0 0 0 4.279724,-0.934653 l 0.344346,-0.491922 a 3.5418408,3.5418408 0 0 0 0,-3.886187 9.8384469,9.8384469 0 0 1 0,-10.37956 11.166637,11.166637 0 0 1 9.838445,-5.65711 44.273011,44.273011 0 0 1 -1.62334,6.64095 l -0.24596,0.88546 v 0.49193 a 30.991107,30.991107 0 0 0 -0.83627,20.857503 28.433111,28.433111 0 0 0 -9.838448,9.838447 40.190055,40.190055 0 0 0 -5.558723,17.610816 24.596117,24.596117 0 0 0 0,2.85315 28.383919,28.383919 0 0 0 -11.314214,30.45 24.842078,24.842078 0 0 0 22.726815,18.39789 h 2.85315 a 112.7978,112.7978 0 0 0 26.90815,-4.52568 107.09149,107.09149 0 0 1 21.00508,-3.88619 h 1.08224 a 11.904521,11.904521 0 0 1 7.96914,1.86931 3.7386098,3.7386098 0 0 1 1.22981,3.29588 c 0,2.26284 -2.65639,3.19749 -7.87077,4.27972 a 30.646762,30.646762 0 0 0 -4.13215,1.08223 10.969868,10.969868 0 0 0 -6.64094,5.95226 9.8384469,9.8384469 0 0 0 0.34434,8.16591 10.822292,10.822292 0 0 0 10.96986,5.7063 h 1.52497 a 8.9037944,8.9037944 0 0 0 -2.16446,4.62407 8.6086409,8.6086409 0 0 0 0,3.34507 9.3465245,9.3465245 0 0 0 0.83626,4.91922 3.148303,3.148303 0 0 1 0.39355,1.62335 6.5425671,6.5425671 0 0 0 1.2298,3.88618 l -0.54111,3.78781 -1.52497,2.41042 a 3.5418408,3.5418408 0 0 0 4.57488,4.91922 3.5418408,3.5418408 0 0 0 5.80469,-3.59103 l -0.78708,-2.75477 0.59031,-3.98457 a 6.5425671,6.5425671 0 0 0 2.01689,-3.24669 2.8039573,2.8039573 0 0 1 0.78707,-1.37738 9.24814,9.24814 0 0 0 2.31203,-4.67326 8.6086409,8.6086409 0 0 0 1.13142,-3.09911 8.0675264,8.0675264 0 0 0 -0.78707,-4.91923 v -0.49192 a 11.461791,11.461791 0 0 0 -1.3282,-10.33037 9.8384469,9.8384469 0 0 0 -1.47576,-1.57415 17.807589,17.807589 0 0 0 3.04992,-1.67254 18.643857,18.643857 0 0 0 7.08368,-17.85678 19.135779,19.135779 0 0 0 -13.9706,-15.39717 34.139411,34.139411 0 0 0 -10.33036,-1.42657 111.96152,111.96152 0 0 0 -24.98966,4.03376 94.645858,94.645858 0 0 1 -19.67689,3.39427 h -1.03304 c -7.82156,-0.29516 -11.90452,-3.44346 -12.101289,-9.29733 a 12.494827,12.494827 0 0 1 1.033037,-5.46034 22.923581,22.923581 0 0 0 17.118902,8.36268 21.546198,21.546198 0 0 0 4.62407,-0.49193 c 10.52713,-2.31203 12.88836,-9.83844 12.6424,-13.57705 a 3.5418408,3.5418408 0 0 0 -2.95153,-3.24669 h -0.5903 a 3.5418408,3.5418408 0 0 0 -3.2467,2.16446 9.8384469,9.8384469 0 0 1 -9.05137,4.91922 11.166637,11.166637 0 0 1 -9.83845,-5.80468 44.273011,44.273011 0 0 1 6.59177,-1.9185 h 0.88545 0.54111 a 30.991107,30.991107 0 0 0 18.49628,-9.83845 28.433111,28.433111 0 0 0 13.42949,3.44346 40.190055,40.190055 0 0 0 18.05355,-3.98457 24.596117,24.596117 0 0 0 2.5088,-1.37738 28.383919,28.383919 0 0 0 32.02415,-5.41115 24.842078,24.842078 0 0 0 4.57488,-28.87584 c -0.44273,-0.836268 -0.88546,-1.672537 -1.37739,-2.508804 A 112.7978,112.7978 0 0 0 184.69469,56.935924 107.09149,107.09149 0 0 1 170.82248,40.702484 l -0.59031,-0.93465 a 11.904521,11.904521 0 0 1 -2.36123,-7.82157 3.7386098,3.7386098 0 0 1 1.47576,-2.45961 c 2.06608,-0.98384 4.08296,0.73788 7.6248,4.67326 a 30.646762,30.646762 0 0 0 3.00073,3.04991 10.969868,10.969868 0 0 0 8.46106,2.75478 9.8384469,9.8384469 0 0 0 6.88691,-4.37811 10.822292,10.822292 0 0 0 -0.54111,-12.34726 l -0.78707,-1.32818 a 8.9037944,8.9037944 0 0 0 4.91922,-0.44273 8.6086409,8.6086409 0 0 0 2.95153,-1.82012 9.3465245,9.3465245 0 0 0 4.03377,-3.29588 3.148303,3.148303 0 0 1 1.22981,-1.13142 6.5425671,6.5425671 0 0 0 2.75476,-3.00072 l 3.54184,-1.42658 h 2.85314 a 3.5418408,3.5418408 0 0 0 3.2467,-5.31276 z m -96.9087,63.70394 a 24.596117,24.596117 0 0 1 3.34507,7.870754 11.953713,11.953713 0 0 1 0,6.985297 c -0.78707,1.721728 -3.04992,1.721728 -3.88618,-2.115266 a 49.585773,49.585773 0 0 1 0.54111,-12.740785 z m -4.91922,37.484476 a 49.585773,49.585773 0 0 1 -11.36341,5.80469 24.596117,24.596117 0 0 1 4.91923,-6.83772 11.953713,11.953713 0 0 1 6.44418,-3.44346 c 1.96769,-0.19677 3.09911,1.82011 0,4.47649 z m 25.57996,-3.00072 a 11.953713,11.953713 0 0 1 -5.90307,-3.64023 c -1.08223,-1.524958 0,-3.492648 3.7878,-2.312033 a 49.585773,49.585773 0 0 1 10.96988,6.936103 24.596117,24.596117 0 0 1 -8.60865,-1.03304 z" id="path1423" inkscape:connector-curvature="0" style="fill:#44d62c;stroke-width:4.91922331;fill-opacity:1"/>
  <path d="m 216.42368,7.350154 -3.1975,-0.78708 1.72173,-2.90234 -2.5088,2.60718 -6.24742,2.41042 a 2.3612272,2.3612272 0 0 0 -2.60719,-0.63949 c -3.24668,0.83626 -3.34507,-0.93466 -6.9853,0.44272 -0.73788,0.29516 -0.49192,-0.34434 -2.85314,0.44273 -2.36123,0.78709 -2.50881,3.1975 -3.837,3.44346 a 7.5756041,7.5756041 0 0 0 -4.91922,12.78998 c 0.83626,1.18062 1.32819,2.01688 0.88545,2.45961 -0.44272,0.44274 -1.03303,0.63951 -1.96769,-0.78707 a 25.137232,25.137232 0 0 0 -8.70701,-8.01833 15.39717,15.39717 0 0 0 -20.41478,18.59466 c 3.68941,16.57778 25.87511,31.28626 33.00798,44.863316 5.26357,9.838447 2.11527,16.430206 -3.24668,19.67689 a 16.430206,16.430206 0 0 1 -12.54403,2.01689 19.676894,19.676894 0 0 0 -1.27899,-23.563085 c -7.13287,-7.821561 -13.47867,-3.591033 -13.47867,-3.591033 10.18279,-1.229808 20.56235,13.823017 9.83844,25.137228 a 40.681978,40.681978 0 0 1 -8.90379,-7.772369 c -1.57415,-1.672536 -9.83845,-11.65856 -19.23416,-10.477947 1.77092,-9.83845 -4.91923,-21.20185 -14.41333,-27.54765 a 21.398622,21.398622 0 0 0 -3.7878,-2.06607 c -2.06608,-26.02269 -30.400803,-32.12253 -41.715017,-14.75768 -9.198948,14.01979 -10.871483,34.43457 -18.004358,47.86405 -3.394263,6.39499 -8.756217,11.707751 -14.757669,7.624796 -6.001453,-4.082956 -0.836267,-12.248866 0,-16.577783 a 6.5425671,6.5425671 0 0 0 -5.903067,-8.362683 c -4.919225,-0.39353 -7.182067,4.91923 -7.969143,6.690147 a 2.9515341,2.9515341 0 0 1 -5.263569,0.88546 c -0.836268,-0.934653 -1.180614,-3.394267 -2.557996,-4.378107 -1.377383,-0.98385 -1.967689,-0.73789 -2.607188,-1.22981 -3.099111,-2.31203 -3.640226,-0.73788 -6.591759,-2.41042 a 2.4104194,2.4104194 0 0 0 -2.853151,0 l -4.9192227,-4.03376 -1.672536,-3.24669 0.9346525,3.1975 H 3.3721082 l 3.5418408,0.88546 4.919223,4.03376 a 2.3612272,2.3612272 0 0 0 0.737883,2.60719 c 2.361229,2.41042 0.885461,3.345071 3.836995,5.853875 0.590307,0.491922 0,0.590306 1.770921,2.213651 1.77092,1.623344 4.033763,0.590306 4.919223,1.574151 a 7.5756041,7.5756041 0 0 0 13.577057,-2.066074 c 0.590306,-1.32819 1.082228,-2.115266 1.721728,-1.967689 0.639499,0.147577 1.082229,0.590306 0.344346,2.115266 a 25.137232,25.137232 0 0 0 -2.557996,11.560175 15.39717,15.39717 0 0 0 26.317844,8.362681 c 12.54402,-11.510984 14.167363,-38.025596 22.333274,-51.012346 6.050644,-9.54329 13.183519,-9.83844 18.791433,-7.08368 a 16.430206,16.430206 0 0 1 8.01833,9.83844 19.676894,19.676894 0 0 0 -19.676889,12.88837 c -3.197496,10.08441 3.640226,13.478671 3.640226,13.478671 -6.198222,-8.215101 1.672535,-24.596111 16.774553,-21.201851 a 40.681978,40.681978 0 0 1 -2.11526,11.4126 c -0.63951,2.16445 -4.91923,14.413321 0.54111,21.939732 -9.59249,3.492649 -15.839903,15.003634 -16.676171,26.219464 a 21.398622,21.398622 0 0 0 0,4.27972 c -21.497007,14.75767 -12.593212,42.40371 7.919951,43.58432 16.72536,0.98385 35.17244,-7.77237 50.42204,-8.31349 7.23126,-0.24596 14.46252,1.72173 13.9214,8.95299 -0.54111,7.23126 -10.18278,6.88691 -14.31493,8.36268 a 6.5425671,6.5425671 0 0 0 -4.27973,9.29733 c 2.01688,4.27973 8.01833,3.64023 9.83844,3.59104 3.88619,0 3.78781,2.85315 3.39427,4.13214 -0.39354,1.279 -2.36122,2.70558 -2.5088,4.4273 0,2.45962 0.34434,2.06608 0,2.85315 -0.49193,3.837 1.18061,3.54185 1.18061,6.88692 a 2.4104194,2.4104194 0 0 0 1.47577,2.45961 l -0.93466,6.44418 -1.96769,3.04992 2.31203,-2.36123 1.67254,2.95154 -1.03303,-3.49265 0.93465,-6.49338 a 2.3612272,2.3612272 0 0 0 1.86931,-1.91849 c 0.93464,-3.24669 2.45961,-2.45962 3.0991,-6.24742 0,-0.78707 0.54112,-0.24596 1.03305,-2.65638 0.34434,-1.67253 -1.47577,-3.7878 -1.08224,-4.91922 2.558,-8.11672 -3.19749,-11.21583 -8.55944,-10.72391 -1.47577,0 -2.41043,0 -2.55801,-0.49192 -0.14757,-0.49192 0,-1.22981 1.67254,-1.32819 a 25.137232,25.137232 0 0 0 11.31422,-3.54184 15.39717,15.39717 0 0 0 -5.90307,-26.95735 c -16.23344,-4.91922 -40.04248,6.73934 -55.34126,6.14903 -11.314218,-0.44273 -15.298789,-6.39499 -15.54475,-12.74079 a 16.430206,16.430206 0 0 1 4.525686,-11.85532 19.676894,19.676894 0 0 0 21.054274,10.67471 c 10.33037,-2.26284 9.83845,-9.83845 9.83845,-9.83845 -4.03377,9.44491 -22.28408,10.92068 -26.76058,-3.93538 a 40.681978,40.681978 0 0 1 11.16664,-3.83699 c 2.21365,-0.54111 15.05283,-2.75477 18.69305,-11.4126 8.11672,6.39499 21.39863,6.00145 31.23707,1.08223 a 21.398622,21.398622 0 0 0 3.64023,-2.21365 c 23.61227,11.21583 42.99401,-10.28118 33.79506,-28.679072 -7.52641,-14.757674 -24.30096,-26.563814 -32.41768,-39.353784 -3.837,-6.14904 -5.75549,-13.42948 0.78707,-16.52859 6.54257,-3.09912 11.11744,5.26356 14.51171,8.06752 a 6.5425671,6.5425671 0 0 0 10.18279,-0.93465 c 2.70557,-3.98457 -0.98384,-8.90379 -1.77092,-10.23199 a 2.9515341,2.9515341 0 0 1 1.86931,-4.91922 c 1.18062,-0.24596 3.54184,0.6887 4.91922,0 1.37739,-0.68869 1.62335,-1.32819 2.36123,-1.62334 3.54184,-1.52496 2.45961,-2.80396 5.36196,-4.47649 a 2.4104194,2.4104194 0 0 0 1.57414,-2.41042 l 6.05065,-2.41042 z m -96.17082,54.11145 a 28.580688,28.580688 0 0 1 9.05137,15.052824 14.167363,14.167363 0 0 1 -0.98385,9.838448 c -2.26284,3.935378 -8.41187,4.378108 -9.83845,-3.640226 -1.47576,-6.296606 1.13143,-16.577786 1.72174,-21.447816 z m 0,48.257586 c -4.91922,4.18134 -14.75767,7.08368 -19.6769,8.95298 a 28.580688,28.580688 0 0 1 8.60864,-15.39717 14.167363,14.167363 0 0 1 9.05137,-4.132144 c 4.32892,-0.147576 7.96915,4.968414 1.86931,10.379564 z m 21.98892,-2.60719 a 14.167363,14.167363 0 0 1 -8.11671,-5.80468 c -2.26285,-3.935384 0.39353,-9.444914 8.1659,-6.886918 6.00146,2.016882 13.62625,9.395718 17.51244,12.347248 a 28.580688,28.580688 0 0 1 -17.56163,0.34435 z" id="path1425" inkscape:connector-curvature="0" style="stroke-width:4.91922331"/>
</svg>